<svg width="1541" height="211" viewBox="0 0 1541 211" fill="none" xmlns="http://www.w3.org/2000/svg">
<path d="M1421.65 210.315C1396.15 210.315 1396.15 181.632 1396.15 181.632H1540.77C1540.77 181.632 1540.77 210.315 1511.19 210.315H1421.65Z" fill="black"/>
<path d="M1420.96 127.3C1395.47 127.3 1395.47 98.617 1395.47 98.617H1540.08C1540.08 98.617 1540.08 127.301 1510.5 127.3H1420.96Z" fill="black"/>
<path d="M1420.96 43.8306C1395.47 43.8306 1395.47 15.1472 1395.47 15.1472L1540.08 15.1472C1540.08 15.1472 1540.08 43.8306 1510.5 43.8306L1420.96 43.8306Z" fill="black"/>
<rect x="826.281" y="115.898" width="33.4639" height="93.2208" fill="black"/>
<rect x="859.744" y="115.898" width="41.8299" height="27.4882" fill="black"/>
<path d="M901.572 115.899C901.572 115.899 932.048 115.899 932.048 79.4474C932.048 42.9957 901.572 42.9957 901.572 42.9957V13.1172C901.572 13.1172 962.524 17.668 962.524 76.8285C962.524 135.989 901.572 143.387 901.572 143.387V115.899Z" fill="black"/>
<path d="M786.137 12.8711H901.477V43.2239H810.04C786.137 43.2239 786.137 12.8711 786.137 12.8711Z" fill="black"/>
<rect x="1106.93" y="15.5078" width="33.4639" height="193.613" fill="black"/>
<path d="M1106.93 210.314V181.631H1251.54C1251.54 181.631 1251.54 210.314 1227.77 210.314H1106.93Z" fill="black"/>
<path d="M668.019 210.249L635.816 210.164L635.816 123.308C635.816 69.9409 667.699 69.9408 667.699 69.9408L668.019 210.249Z" fill="black"/>
<rect x="484.033" y="16.1597" width="33.4639" height="193.613" fill="black"/>
<path d="M619.196 35.2564C630.199 16.1594 666.89 16.1595 666.89 16.1595L570.682 151.808L572.474 101.014L619.196 35.2564Z" fill="black"/>
<path d="M487.621 37.6691L517.501 16.1602L572.478 101.015L570.68 151.209L487.621 37.6691Z" fill="black"/>
<path d="M305.959 16.7017C305.959 16.7017 339.423 16.7017 339.423 42.4652C339.423 68.2287 339.423 210.314 339.423 210.314C339.423 210.314 305.959 210.314 305.959 185.123C305.959 159.932 305.959 16.7017 305.959 16.7017Z" fill="black"/>
<rect x="0.00195312" y="210.313" width="33.4639" height="161.344" transform="rotate(-90 0.00195312 210.313)" fill="black"/>
<path d="M31.8686 50.1577C8.34668 41.6966 8.34668 16.6938 8.34668 16.6938L169.69 16.6938C169.69 16.6938 169.69 50.1577 143.037 50.1577H31.8686Z" fill="black"/>
<path d="M25.0403 199.07L0.000378377 176.87C0.000378377 176.87 56.9119 120.163 79.297 94.4443C101.682 68.7253 138.041 75.264 138.041 75.264L25.0403 199.07Z" fill="black"/>
</svg>
