<svg width="739" height="102" viewBox="0 0 739 102" fill="none" xmlns="http://www.w3.org/2000/svg">
<path d="M681.868 100.874C669.64 100.874 669.64 87.1166 669.64 87.1166H739C739 87.1166 739 100.874 724.815 100.874H681.868Z" fill="white"/>
<path d="M681.54 61.0576C669.312 61.0576 669.312 47.3002 669.312 47.3002H738.672C738.672 47.3002 738.672 61.0577 724.486 61.0576H681.54Z" fill="white"/>
<path d="M681.54 21.0225C669.312 21.0225 669.312 7.26501 669.312 7.26501L738.672 7.26501C738.672 7.26501 738.672 21.0225 724.486 21.0225L681.54 21.0225Z" fill="white"/>
<rect x="396.312" y="55.5884" width="16.0504" height="44.7117" fill="white"/>
<rect x="412.361" y="55.5884" width="20.0629" height="13.1842" fill="white"/>
<path d="M432.424 55.589C432.424 55.589 447.041 55.589 447.041 38.1056C447.041 20.6222 432.424 20.6222 432.424 20.6222V6.2915C432.424 6.2915 461.658 8.47422 461.658 36.8495C461.658 65.2247 432.424 68.7732 432.424 68.7732V55.589Z" fill="white"/>
<path d="M377.057 6.17334H432.378V20.7315H388.521C377.057 20.7315 377.057 6.17334 377.057 6.17334Z" fill="white"/>
<rect x="530.919" y="7.43799" width="16.0504" height="92.8628" fill="white"/>
<path d="M530.919 100.874V87.1166H600.279C600.279 87.1166 600.279 100.874 588.878 100.874H530.919Z" fill="white"/>
<path d="M320.404 100.842L304.958 100.801L304.958 59.1422C304.958 33.5455 320.25 33.5455 320.25 33.5455L320.404 100.842Z" fill="white"/>
<rect x="232.158" y="7.75049" width="16.0504" height="92.8628" fill="white"/>
<path d="M296.987 16.9101C302.264 7.75055 319.862 7.75063 319.862 7.75063L273.718 72.8119L274.578 48.4498L296.987 16.9101Z" fill="white"/>
<path d="M233.878 18.0673L248.21 7.75092L274.579 48.45L273.716 72.5246L233.878 18.0673Z" fill="white"/>
<path d="M146.747 8.01074C146.747 8.01074 162.797 8.01074 162.797 20.3678C162.797 32.7248 162.797 100.874 162.797 100.874C162.797 100.874 146.747 100.874 146.747 88.7911C146.747 76.7087 146.747 8.01074 146.747 8.01074Z" fill="white"/>
<rect x="0.000976562" y="100.873" width="16.0504" height="77.3856" transform="rotate(-90 0.000976562 100.873)" fill="white"/>
<path d="M15.2848 24.0571C4.00293 19.9989 4.00293 8.00677 4.00293 8.00677L81.3886 8.00677C81.3886 8.00677 81.3886 24.0571 68.6048 24.0571H15.2848Z" fill="white"/>
<path d="M12.0097 95.4804L-0.000249579 84.8326C-0.000249579 84.8326 27.2963 57.6341 38.033 45.2985C48.7696 32.9628 66.2082 36.099 66.2082 36.099L12.0097 95.4804Z" fill="white"/>
</svg>
